<svg xmlns="http://www.w3.org/2000/svg" width="840" height="692" viewBox="0 0 840 692" font-family="-apple-system, Segoe UI, Helvetica, Arial, sans-serif">
<rect width="100%" height="100%" fill="#0d1117"/>
<text x="190.0" y="24.0" text-anchor="start" font-size="16" fill="#c9d1d9" font-weight="600">This compiler against Idris on Chez Scheme</text>
<text x="190.0" y="46.0" text-anchor="start" font-size="12" fill="#8b949e">green: this compiler is faster; red: slower; log scale</text>
<line x1="190.0" y1="64" x2="190.0" y2="642" stroke="#30363d"/>
<text x="190.0" y="660.0" text-anchor="middle" font-size="11" fill="#8b949e">10x slower</text>
<line x1="330.0" y1="64" x2="330.0" y2="642" stroke="#8b949e"/>
<text x="330.0" y="660.0" text-anchor="middle" font-size="11" fill="#8b949e">even</text>
<line x1="470.0" y1="64" x2="470.0" y2="642" stroke="#30363d"/>
<text x="470.0" y="660.0" text-anchor="middle" font-size="11" fill="#8b949e">10x faster</text>
<line x1="610.0" y1="64" x2="610.0" y2="642" stroke="#30363d"/>
<text x="610.0" y="660.0" text-anchor="middle" font-size="11" fill="#8b949e">100x faster</text>
<line x1="750.0" y1="64" x2="750.0" y2="642" stroke="#30363d"/>
<text x="750.0" y="660.0" text-anchor="middle" font-size="11" fill="#8b949e">1000x faster</text>
<text x="180.0" y="85.0" text-anchor="end" font-size="12" fill="#c9d1d9">ack</text>
<rect x="330.0" y="74" width="347.2" height="14" fill="#3fb950"/>
<text x="683.2" y="85.0" text-anchor="start" font-size="12" fill="#c9d1d9">302x faster</text>
<text x="180.0" y="107.0" text-anchor="end" font-size="12" fill="#c9d1d9">spectral-norm-linear</text>
<rect x="330.0" y="96" width="284.3" height="14" fill="#3fb950"/>
<text x="620.3" y="107.0" text-anchor="start" font-size="12" fill="#c9d1d9">107x faster</text>
<text x="180.0" y="129.0" text-anchor="end" font-size="12" fill="#c9d1d9">spectral-norm</text>
<rect x="330.0" y="118" width="270.0" height="14" fill="#3fb950"/>
<text x="606.0" y="129.0" text-anchor="start" font-size="12" fill="#c9d1d9">85x faster</text>
<text x="180.0" y="151.0" text-anchor="end" font-size="12" fill="#c9d1d9">collatz</text>
<rect x="330.0" y="140" width="223.7" height="14" fill="#3fb950"/>
<text x="559.7" y="151.0" text-anchor="start" font-size="12" fill="#c9d1d9">40x faster</text>
<text x="180.0" y="173.0" text-anchor="end" font-size="12" fill="#c9d1d9">fib</text>
<rect x="330.0" y="162" width="201.7" height="14" fill="#3fb950"/>
<text x="537.7" y="173.0" text-anchor="start" font-size="12" fill="#c9d1d9">28x faster</text>
<text x="180.0" y="195.0" text-anchor="end" font-size="12" fill="#c9d1d9">harmonic</text>
<rect x="330.0" y="184" width="193.8" height="14" fill="#3fb950"/>
<text x="529.8" y="195.0" text-anchor="start" font-size="12" fill="#c9d1d9">24x faster</text>
<text x="180.0" y="217.0" text-anchor="end" font-size="12" fill="#c9d1d9">mandelbrot-pbm</text>
<rect x="330.0" y="206" width="181.6" height="14" fill="#3fb950"/>
<text x="517.6" y="217.0" text-anchor="start" font-size="12" fill="#c9d1d9">20x faster</text>
<text x="180.0" y="239.0" text-anchor="end" font-size="12" fill="#c9d1d9">nbody</text>
<rect x="330.0" y="228" width="178.0" height="14" fill="#3fb950"/>
<text x="514.0" y="239.0" text-anchor="start" font-size="12" fill="#c9d1d9">19x faster</text>
<text x="180.0" y="261.0" text-anchor="end" font-size="12" fill="#c9d1d9">fannkuch-linear</text>
<rect x="330.0" y="250" width="176.7" height="14" fill="#3fb950"/>
<text x="512.7" y="261.0" text-anchor="start" font-size="12" fill="#c9d1d9">18x faster</text>
<text x="180.0" y="283.0" text-anchor="end" font-size="12" fill="#c9d1d9">mandelbrot</text>
<rect x="330.0" y="272" width="176.2" height="14" fill="#3fb950"/>
<text x="512.2" y="283.0" text-anchor="start" font-size="12" fill="#c9d1d9">18x faster</text>
<text x="180.0" y="305.0" text-anchor="end" font-size="12" fill="#c9d1d9">fannkuch-redux</text>
<rect x="330.0" y="294" width="174.3" height="14" fill="#3fb950"/>
<text x="510.3" y="305.0" text-anchor="start" font-size="12" fill="#c9d1d9">18x faster</text>
<text x="180.0" y="327.0" text-anchor="end" font-size="12" fill="#c9d1d9">nqueens</text>
<rect x="330.0" y="316" width="162.7" height="14" fill="#3fb950"/>
<text x="498.7" y="327.0" text-anchor="start" font-size="12" fill="#c9d1d9">15x faster</text>
<text x="180.0" y="349.0" text-anchor="end" font-size="12" fill="#c9d1d9">unionfind</text>
<rect x="330.0" y="338" width="158.3" height="14" fill="#3fb950"/>
<text x="494.3" y="349.0" text-anchor="start" font-size="12" fill="#c9d1d9">14x faster</text>
<text x="180.0" y="371.0" text-anchor="end" font-size="12" fill="#c9d1d9">tak</text>
<rect x="330.0" y="360" width="146.8" height="14" fill="#3fb950"/>
<text x="482.8" y="371.0" text-anchor="start" font-size="12" fill="#c9d1d9">11x faster</text>
<text x="180.0" y="393.0" text-anchor="end" font-size="12" fill="#c9d1d9">qsort</text>
<rect x="330.0" y="382" width="145.2" height="14" fill="#3fb950"/>
<text x="481.2" y="393.0" text-anchor="start" font-size="12" fill="#c9d1d9">11x faster</text>
<text x="180.0" y="415.0" text-anchor="end" font-size="12" fill="#c9d1d9">binary-trees</text>
<rect x="330.0" y="404" width="118.9" height="14" fill="#3fb950"/>
<text x="454.9" y="415.0" text-anchor="start" font-size="12" fill="#c9d1d9">7.07x faster</text>
<text x="180.0" y="437.0" text-anchor="end" font-size="12" fill="#c9d1d9">pidigits</text>
<rect x="330.0" y="426" width="102.0" height="14" fill="#3fb950"/>
<text x="438.0" y="437.0" text-anchor="start" font-size="12" fill="#c9d1d9">5.35x faster</text>
<text x="180.0" y="459.0" text-anchor="end" font-size="12" fill="#c9d1d9">reverse-complement</text>
<rect x="330.0" y="448" width="92.9" height="14" fill="#3fb950"/>
<text x="428.9" y="459.0" text-anchor="start" font-size="12" fill="#c9d1d9">4.61x faster</text>
<text x="180.0" y="481.0" text-anchor="end" font-size="12" fill="#c9d1d9">ackdyn</text>
<rect x="330.0" y="470" width="91.9" height="14" fill="#3fb950"/>
<text x="427.9" y="481.0" text-anchor="start" font-size="12" fill="#c9d1d9">4.53x faster</text>
<text x="180.0" y="503.0" text-anchor="end" font-size="12" fill="#c9d1d9">fasta</text>
<rect x="330.0" y="492" width="72.4" height="14" fill="#3fb950"/>
<text x="408.4" y="503.0" text-anchor="start" font-size="12" fill="#c9d1d9">3.29x faster</text>
<text x="180.0" y="525.0" text-anchor="end" font-size="12" fill="#c9d1d9">rbtree-ck</text>
<rect x="330.0" y="514" width="71.2" height="14" fill="#3fb950"/>
<text x="407.2" y="525.0" text-anchor="start" font-size="12" fill="#c9d1d9">3.22x faster</text>
<text x="180.0" y="547.0" text-anchor="end" font-size="12" fill="#c9d1d9">cfold</text>
<rect x="330.0" y="536" width="69.7" height="14" fill="#3fb950"/>
<text x="405.7" y="547.0" text-anchor="start" font-size="12" fill="#c9d1d9">3.14x faster</text>
<text x="180.0" y="569.0" text-anchor="end" font-size="12" fill="#c9d1d9">deriv</text>
<rect x="330.0" y="558" width="54.2" height="14" fill="#3fb950"/>
<text x="390.2" y="569.0" text-anchor="start" font-size="12" fill="#c9d1d9">2.44x faster</text>
<text x="180.0" y="591.0" text-anchor="end" font-size="12" fill="#c9d1d9">k-nucleotide</text>
<rect x="330.0" y="580" width="49.9" height="14" fill="#3fb950"/>
<text x="385.9" y="591.0" text-anchor="start" font-size="12" fill="#c9d1d9">2.27x faster</text>
<text x="180.0" y="613.0" text-anchor="end" font-size="12" fill="#c9d1d9">rbtree</text>
<rect x="330.0" y="602" width="44.7" height="14" fill="#3fb950"/>
<text x="380.7" y="613.0" text-anchor="start" font-size="12" fill="#c9d1d9">2.09x faster</text>
<text x="180.0" y="635.0" text-anchor="end" font-size="12" fill="#c9d1d9">regex-redux</text>
<rect x="319.8" y="624" width="10.2" height="14" fill="#f85149"/>
<text x="336.0" y="635.0" text-anchor="start" font-size="12" fill="#c9d1d9">1.18x slower</text>
</svg>
