<svg xmlns="http://www.w3.org/2000/svg" width="840" height="714" viewBox="0 0 840 714" font-family="-apple-system, Segoe UI, Helvetica, Arial, sans-serif">
<rect width="100%" height="100%" fill="#0d1117"/>
<text x="190.0" y="24.0" text-anchor="start" font-size="16" fill="#c9d1d9" font-weight="600">Best time of each compiler, per benchmark</text>
<rect x="190.0" y="36" width="10" height="10" fill="#58a6ff"/>
<text x="204.0" y="45.0" text-anchor="start" font-size="12" fill="#c9d1d9">this compiler</text>
<rect x="313.0" y="36" width="10" height="10" fill="#d29922"/>
<text x="327.0" y="45.0" text-anchor="start" font-size="12" fill="#c9d1d9">Idris Chez</text>
<rect x="415.0" y="36" width="10" height="10" fill="#8b949e"/>
<text x="429.0" y="45.0" text-anchor="start" font-size="12" fill="#c9d1d9">clang -O2</text>
<line x1="190.0" y1="64" x2="190.0" y2="664" stroke="#30363d"/>
<text x="190.0" y="682.0" text-anchor="middle" font-size="11" fill="#8b949e">10 ms</text>
<line x1="283.3" y1="64" x2="283.3" y2="664" stroke="#30363d"/>
<text x="283.3" y="682.0" text-anchor="middle" font-size="11" fill="#8b949e">100 ms</text>
<line x1="376.7" y1="64" x2="376.7" y2="664" stroke="#30363d"/>
<text x="376.7" y="682.0" text-anchor="middle" font-size="11" fill="#8b949e">1 s</text>
<line x1="470.0" y1="64" x2="470.0" y2="664" stroke="#30363d"/>
<text x="470.0" y="682.0" text-anchor="middle" font-size="11" fill="#8b949e">10 s</text>
<line x1="563.3" y1="64" x2="563.3" y2="664" stroke="#30363d"/>
<text x="563.3" y="682.0" text-anchor="middle" font-size="11" fill="#8b949e">100 s</text>
<line x1="656.7" y1="64" x2="656.7" y2="664" stroke="#30363d"/>
<text x="656.7" y="682.0" text-anchor="middle" font-size="11" fill="#8b949e">1000 s</text>
<line x1="750.0" y1="64" x2="750.0" y2="664" stroke="#30363d"/>
<text x="750.0" y="682.0" text-anchor="middle" font-size="11" fill="#8b949e">10000 s</text>
<text x="180.0" y="84.0" text-anchor="end" font-size="12" fill="#c9d1d9">ack</text>
<rect x="190" y="75.0" width="9.4" height="3" fill="#58a6ff"><title>ack, this compiler: 0.013 s</title></rect>
<rect x="190" y="79.0" width="168.6" height="3" fill="#d29922"><title>ack, Idris Chez: 0.640 s</title></rect>
<rect x="190" y="83.0" width="110.3" height="3" fill="#8b949e"><title>ack, clang -O2: 0.152 s</title></rect>
<text x="180.0" y="106.0" text-anchor="end" font-size="12" fill="#c9d1d9">ackdyn</text>
<rect x="190" y="97.0" width="114.0" height="3" fill="#58a6ff"><title>ackdyn, this compiler: 0.166 s</title></rect>
<rect x="190" y="101.0" width="168.8" height="3" fill="#d29922"><title>ackdyn, Idris Chez: 0.643 s</title></rect>
<rect x="190" y="105.0" width="109.3" height="3" fill="#8b949e"><title>ackdyn, clang -O2: 0.148 s</title></rect>
<text x="180.0" y="128.0" text-anchor="end" font-size="12" fill="#c9d1d9">binary-trees</text>
<rect x="190" y="119.0" width="250.0" height="3" fill="#58a6ff"><title>binary-trees, this compiler: 4.767 s</title></rect>
<rect x="190" y="123.0" width="314.3" height="3" fill="#d29922"><title>binary-trees, Idris Chez: 23.298 s</title></rect>
<rect x="190" y="127.0" width="289.8" height="3" fill="#8b949e"><title>binary-trees, clang -O2: 12.746 s</title></rect>
<text x="180.0" y="150.0" text-anchor="end" font-size="12" fill="#c9d1d9">cfold</text>
<rect x="190" y="141.0" width="83.4" height="3" fill="#58a6ff"><title>cfold, this compiler: 0.078 s</title></rect>
<rect x="190" y="145.0" width="142.9" height="3" fill="#d29922"><title>cfold, Idris Chez: 0.340 s</title></rect>
<rect x="190" y="149.0" width="92.6" height="3" fill="#8b949e"><title>cfold, clang -O2: 0.098 s</title></rect>
<text x="180.0" y="172.0" text-anchor="end" font-size="12" fill="#c9d1d9">collatz</text>
<rect x="190" y="163.0" width="152.7" height="3" fill="#58a6ff"><title>collatz, this compiler: 0.432 s</title></rect>
<rect x="190" y="167.0" width="286.2" height="3" fill="#d29922"><title>collatz, Idris Chez: 11.644 s</title></rect>
<rect x="190" y="171.0" width="153.5" height="3" fill="#8b949e"><title>collatz, clang -O2: 0.442 s</title></rect>
<text x="180.0" y="194.0" text-anchor="end" font-size="12" fill="#c9d1d9">deriv</text>
<rect x="190" y="185.0" width="167.0" height="3" fill="#58a6ff"><title>deriv, this compiler: 0.615 s</title></rect>
<rect x="190" y="189.0" width="213.9" height="3" fill="#d29922"><title>deriv, Idris Chez: 1.959 s</title></rect>
<rect x="190" y="193.0" width="195.8" height="3" fill="#8b949e"><title>deriv, clang -O2: 1.251 s</title></rect>
<text x="180.0" y="216.0" text-anchor="end" font-size="12" fill="#c9d1d9">fannkuch-linear</text>
<rect x="190" y="207.0" width="315.7" height="3" fill="#58a6ff"><title>fannkuch-linear, this compiler: 24.155 s</title></rect>
<rect x="190" y="211.0" width="427.8" height="3" fill="#d29922"><title>fannkuch-linear, Idris Chez: 383.179 s</title></rect>
<rect x="190" y="215.0" width="318.3" height="3" fill="#8b949e"><title>fannkuch-linear, clang -O2: 25.711 s</title></rect>
<text x="180.0" y="238.0" text-anchor="end" font-size="12" fill="#c9d1d9">fannkuch-redux</text>
<rect x="190" y="229.0" width="327.8" height="3" fill="#58a6ff"><title>fannkuch-redux, this compiler: 32.542 s</title></rect>
<rect x="190" y="233.0" width="472.8" height="3" fill="#d29922"><title>fannkuch-redux, Idris Chez: 1163.295 s</title></rect>
<rect x="190" y="237.0" width="317.7" height="3" fill="#8b949e"><title>fannkuch-redux, clang -O2: 25.350 s</title></rect>
<text x="180.0" y="260.0" text-anchor="end" font-size="12" fill="#c9d1d9">fasta</text>
<rect x="190" y="251.0" width="260.4" height="3" fill="#58a6ff"><title>fasta, this compiler: 6.164 s</title></rect>
<rect x="190" y="255.0" width="291.2" height="3" fill="#d29922"><title>fasta, Idris Chez: 13.174 s</title></rect>
<rect x="190" y="259.0" width="229.2" height="3" fill="#8b949e"><title>fasta, clang -O2: 2.858 s</title></rect>
<text x="180.0" y="282.0" text-anchor="end" font-size="12" fill="#c9d1d9">fasta-redux</text>
<rect x="190" y="273.0" width="239.9" height="3" fill="#58a6ff"><title>fasta-redux, this compiler: 3.718 s</title></rect>
<rect x="190" y="277.0" width="279.8" height="3" fill="#d29922"><title>fasta-redux, Idris Chez: 9.955 s</title></rect>
<rect x="190" y="281.0" width="183.3" height="3" fill="#8b949e"><title>fasta-redux, clang -O2: 0.921 s</title></rect>
<text x="180.0" y="304.0" text-anchor="end" font-size="12" fill="#c9d1d9">fib</text>
<rect x="190" y="295.0" width="97.5" height="3" fill="#58a6ff"><title>fib, this compiler: 0.111 s</title></rect>
<rect x="190" y="299.0" width="214.1" height="3" fill="#d29922"><title>fib, Idris Chez: 1.968 s</title></rect>
<rect x="190" y="303.0" width="101.6" height="3" fill="#8b949e"><title>fib, clang -O2: 0.123 s</title></rect>
<text x="180.0" y="326.0" text-anchor="end" font-size="12" fill="#c9d1d9">harmonic</text>
<rect x="190" y="317.0" width="121.7" height="3" fill="#58a6ff"><title>harmonic, this compiler: 0.201 s</title></rect>
<rect x="190" y="321.0" width="234.9" height="3" fill="#d29922"><title>harmonic, Idris Chez: 3.291 s</title></rect>
<rect x="190" y="325.0" width="120.9" height="3" fill="#8b949e"><title>harmonic, clang -O2: 0.198 s</title></rect>
<text x="180.0" y="348.0" text-anchor="end" font-size="12" fill="#c9d1d9">k-nucleotide</text>
<rect x="190" y="339.0" width="278.6" height="3" fill="#58a6ff"><title>k-nucleotide, this compiler: 9.657 s</title></rect>
<rect x="190" y="343.0" width="440.4" height="3" fill="#d29922"><title>k-nucleotide, Idris Chez: 522.836 s</title></rect>
<rect x="190" y="347.0" width="218.0" height="3" fill="#8b949e"><title>k-nucleotide, clang -O2: 2.164 s</title></rect>
<text x="180.0" y="370.0" text-anchor="end" font-size="12" fill="#c9d1d9">mandelbrot</text>
<rect x="190" y="361.0" width="126.9" height="3" fill="#58a6ff"><title>mandelbrot, this compiler: 0.229 s</title></rect>
<rect x="190" y="365.0" width="233.1" height="3" fill="#d29922"><title>mandelbrot, Idris Chez: 3.144 s</title></rect>
<rect x="190" y="369.0" width="127.3" height="3" fill="#8b949e"><title>mandelbrot, clang -O2: 0.231 s</title></rect>
<text x="180.0" y="392.0" text-anchor="end" font-size="12" fill="#c9d1d9">mandelbrot-pbm</text>
<rect x="190" y="383.0" width="291.7" height="3" fill="#58a6ff"><title>mandelbrot-pbm, this compiler: 13.345 s</title></rect>
<rect x="190" y="387.0" width="402.7" height="3" fill="#d29922"><title>mandelbrot-pbm, Idris Chez: 206.354 s</title></rect>
<rect x="190" y="391.0" width="294.8" height="3" fill="#8b949e"><title>mandelbrot-pbm, clang -O2: 14.415 s</title></rect>
<text x="180.0" y="414.0" text-anchor="end" font-size="12" fill="#c9d1d9">nbody</text>
<rect x="190" y="405.0" width="207.1" height="3" fill="#58a6ff"><title>nbody, this compiler: 1.655 s</title></rect>
<rect x="190" y="409.0" width="343.0" height="3" fill="#d29922"><title>nbody, Idris Chez: 47.291 s</title></rect>
<rect x="190" y="413.0" width="213.2" height="3" fill="#8b949e"><title>nbody, clang -O2: 1.924 s</title></rect>
<text x="180.0" y="436.0" text-anchor="end" font-size="12" fill="#c9d1d9">nqueens</text>
<rect x="190" y="427.0" width="161.2" height="3" fill="#58a6ff"><title>nqueens, this compiler: 0.534 s</title></rect>
<rect x="190" y="431.0" width="265.2" height="3" fill="#d29922"><title>nqueens, Idris Chez: 6.941 s</title></rect>
<rect x="190" y="435.0" width="166.3" height="3" fill="#8b949e"><title>nqueens, clang -O2: 0.604 s</title></rect>
<text x="180.0" y="458.0" text-anchor="end" font-size="12" fill="#c9d1d9">pidigits</text>
<rect x="190" y="449.0" width="169.2" height="3" fill="#58a6ff"><title>pidigits, this compiler: 0.650 s</title></rect>
<rect x="190" y="453.0" width="241.0" height="3" fill="#d29922"><title>pidigits, Idris Chez: 3.824 s</title></rect>
<rect x="190" y="457.0" width="152.9" height="3" fill="#8b949e"><title>pidigits, clang -O2: 0.434 s</title></rect>
<text x="180.0" y="480.0" text-anchor="end" font-size="12" fill="#c9d1d9">qsort</text>
<rect x="190" y="471.0" width="186.3" height="3" fill="#58a6ff"><title>qsort, this compiler: 0.991 s</title></rect>
<rect x="190" y="475.0" width="270.8" height="3" fill="#d29922"><title>qsort, Idris Chez: 7.977 s</title></rect>
<rect x="190" y="479.0" width="183.7" height="3" fill="#8b949e"><title>qsort, clang -O2: 0.929 s</title></rect>
<text x="180.0" y="502.0" text-anchor="end" font-size="12" fill="#c9d1d9">rbtree</text>
<rect x="190" y="493.0" width="150.4" height="3" fill="#58a6ff"><title>rbtree, this compiler: 0.409 s</title></rect>
<rect x="190" y="497.0" width="200.3" height="3" fill="#d29922"><title>rbtree, Idris Chez: 1.400 s</title></rect>
<rect x="190" y="501.0" width="173.3" height="3" fill="#8b949e"><title>rbtree, clang -O2: 0.718 s</title></rect>
<text x="180.0" y="524.0" text-anchor="end" font-size="12" fill="#c9d1d9">rbtree-ck</text>
<rect x="190" y="515.0" width="188.7" height="3" fill="#58a6ff"><title>rbtree-ck, this compiler: 1.051 s</title></rect>
<rect x="190" y="519.0" width="240.0" height="3" fill="#d29922"><title>rbtree-ck, Idris Chez: 3.729 s</title></rect>
<rect x="190" y="523.0" width="196.5" height="3" fill="#8b949e"><title>rbtree-ck, clang -O2: 1.275 s</title></rect>
<text x="180.0" y="546.0" text-anchor="end" font-size="12" fill="#c9d1d9">regex-redux</text>
<rect x="190" y="537.0" width="365.1" height="3" fill="#58a6ff"><title>regex-redux, this compiler: 81.695 s</title></rect>
<rect x="190" y="541.0" width="369.6" height="3" fill="#d29922"><title>regex-redux, Idris Chez: 91.186 s</title></rect>
<rect x="190" y="545.0" width="302.8" height="3" fill="#8b949e"><title>regex-redux, clang -O2: 17.542 s</title></rect>
<text x="180.0" y="568.0" text-anchor="end" font-size="12" fill="#c9d1d9">reverse-complement</text>
<rect x="190" y="559.0" width="260.8" height="3" fill="#58a6ff"><title>reverse-complement, this compiler: 6.229 s</title></rect>
<rect x="190" y="563.0" width="419.1" height="3" fill="#d29922"><title>reverse-complement, Idris Chez: 309.447 s</title></rect>
<rect x="190" y="567.0" width="175.2" height="3" fill="#8b949e"><title>reverse-complement, clang -O2: 0.753 s</title></rect>
<text x="180.0" y="590.0" text-anchor="end" font-size="12" fill="#c9d1d9">spectral-norm</text>
<rect x="190" y="581.0" width="203.5" height="3" fill="#58a6ff"><title>spectral-norm, this compiler: 1.515 s</title></rect>
<rect x="190" y="585.0" width="368.3" height="3" fill="#d29922"><title>spectral-norm, Idris Chez: 88.392 s</title></rect>
<rect x="190" y="589.0" width="191.5" height="3" fill="#8b949e"><title>spectral-norm, clang -O2: 1.126 s</title></rect>
<text x="180.0" y="612.0" text-anchor="end" font-size="12" fill="#c9d1d9">spectral-norm-linear</text>
<rect x="190" y="603.0" width="165.7" height="3" fill="#58a6ff"><title>spectral-norm-linear, this compiler: 0.596 s</title></rect>
<rect x="190" y="607.0" width="369.2" height="3" fill="#d29922"><title>spectral-norm-linear, Idris Chez: 90.307 s</title></rect>
<rect x="190" y="611.0" width="190.8" height="3" fill="#8b949e"><title>spectral-norm-linear, clang -O2: 1.108 s</title></rect>
<text x="180.0" y="634.0" text-anchor="end" font-size="12" fill="#c9d1d9">tak</text>
<rect x="190" y="625.0" width="83.6" height="3" fill="#58a6ff"><title>tak, this compiler: 0.079 s</title></rect>
<rect x="190" y="629.0" width="175.1" height="3" fill="#d29922"><title>tak, Idris Chez: 0.753 s</title></rect>
<rect x="190" y="633.0" width="83.5" height="3" fill="#8b949e"><title>tak, clang -O2: 0.078 s</title></rect>
<text x="180.0" y="656.0" text-anchor="end" font-size="12" fill="#c9d1d9">unionfind</text>
<rect x="190" y="647.0" width="90.6" height="3" fill="#58a6ff"><title>unionfind, this compiler: 0.093 s</title></rect>
<rect x="190" y="651.0" width="196.5" height="3" fill="#d29922"><title>unionfind, Idris Chez: 1.273 s</title></rect>
<rect x="190" y="655.0" width="95.0" height="3" fill="#8b949e"><title>unionfind, clang -O2: 0.104 s</title></rect>
<text x="470.0" y="702.0" text-anchor="middle" font-size="11" fill="#8b949e">best wall-clock time, log scale; a missing bar: that compiler has no version of the program</text>
</svg>
